<svg xmlns="http://www.w3.org/2000/svg" viewBox="0 0 5676 2228" role="img">
<g transform="translate(1088.0 60.0)" fill="#111827">
<path d="M308 890.0Q170 890.0 96.5 829.0Q23 768.0 23 639.0V630.0H230V638.0Q230 685.0 247.5 705.0Q265 725.0 301 725.0Q337 725.0 354.5 705.0Q372 685.0 372 638.0V190.0H593V639.0Q593 768.0 519.5 829.0Q446 890.0 308 890.0Z"/>
<path d="M1202 878.0 1173 781.0H932L903 878.0H677L928 190.0H1185L1436 878.0ZM978 627.0H1127L1055 382.0H1051Z"/>
<path d="M1529 878.0V190.0H1750V878.0Z"/>
<path d="M2499 878.0V630.0Q2499 584.0 2502.5 535.5Q2506 487.0 2510.0 454.0Q2514 421.0 2515 412.0H2511L2384 878.0H2211L2083 413.0H2079Q2080 422.0 2084.5 454.5Q2089 487.0 2093.0 535.5Q2097 584.0 2097 630.0V878.0H1894V190.0H2206L2310 587.0H2314L2417 190.0H2718V878.0Z"/>
<path d="M2852 190.0H3447V355.0H3073V450.0H3393V608.0H3073V713.0H3454V878.0H2852Z"/>
</g>
<g transform="translate(60.0 60.0)" fill="#111827">
<path d="M591 1898.0 502 1479.0H498L409 1898.0H166L5 1210.0H235L314 1600.0H318L396 1210.0H614L697 1600.0H701L775 1210.0H995L834 1898.0Z"/>
<path d="M1084 1898.0V1210.0H1305V1898.0Z"/>
<path d="M1463 1210.0H1684V1722.0H2037V1898.0H1463Z"/>
<path d="M2130 1210.0H2351V1722.0H2704V1898.0H2130Z"/>
<path d="M2807 1898.0V1210.0H3028V1898.0Z"/>
<path d="M3647 1898.0 3618 1801.0H3377L3348 1898.0H3122L3373 1210.0H3630L3881 1898.0ZM3423 1647.0H3572L3500 1402.0H3496Z"/>
<path d="M4555 1898.0V1650.0Q4555 1604.0 4558.5 1555.5Q4562 1507.0 4566.0 1474.0Q4570 1441.0 4571 1432.0H4567L4440 1898.0H4267L4139 1433.0H4135Q4136 1442.0 4140.5 1474.5Q4145 1507.0 4149.0 1555.5Q4153 1604.0 4153 1650.0V1898.0H3950V1210.0H4262L4366 1607.0H4370L4473 1210.0H4774V1898.0Z"/>
<path d="M5501 1410.0V1422.0H5294V1418.0Q5294 1388.0 5272.0 1368.0Q5250 1348.0 5205 1348.0Q5161 1348.0 5137.5 1361.0Q5114 1374.0 5114 1393.0Q5114 1420.0 5146.0 1433.0Q5178 1446.0 5249 1460.0Q5332 1477.0 5385.5 1495.5Q5439 1514.0 5479.0 1556.0Q5519 1598.0 5520 1670.0Q5520 1792.0 5437.5 1851.0Q5355 1910.0 5217 1910.0Q5056 1910.0 4966.5 1856.0Q4877 1802.0 4877 1665.0H5086Q5086 1717.0 5113.0 1734.5Q5140 1752.0 5197 1752.0Q5239 1752.0 5266.5 1743.0Q5294 1734.0 5294 1706.0Q5294 1681.0 5263.5 1668.5Q5233 1656.0 5164 1642.0Q5080 1624.0 5025.0 1604.5Q4970 1585.0 4929.0 1540.0Q4888 1495.0 4888 1418.0Q4888 1305.0 4975.5 1251.5Q5063 1198.0 5197 1198.0Q5329 1198.0 5414.0 1251.5Q5499 1305.0 5501 1410.0Z"/>
</g>
</svg>