<?xml version="1.0" encoding="UTF-8"?>
<svg preserveAspectRatio="xMidYMid meet" data-bbox="37.179 241.635 1768.241 298.356" height="1080" viewBox="0 0 1844.88 810" width="2460" xmlns="http://www.w3.org/2000/svg" data-type="ugc" role="presentation" aria-hidden="true" aria-label="">
    <g>
        <path d="M1331.547 464.082a20.1 20.1 0 0 1-6.688-1.121q-3.19-1.12-4.937-2.95l1.297-2.558q1.691 1.694 4.508 2.754c1.886.7 3.824 1.043 5.82 1.043 2.805 0 4.906-.512 6.316-1.535q2.1-1.549 2.102-4.012c0-1.246-.383-2.242-1.14-2.992q-1.143-1.119-2.794-1.711c-1.101-.402-2.636-.852-4.601-1.336-2.36-.59-4.246-1.16-5.645-1.71a9.3 9.3 0 0 1-3.601-2.54q-1.495-1.689-1.496-4.601c0-1.586.414-3.032 1.242-4.329q1.253-1.944 3.855-3.109c1.73-.77 3.88-1.16 6.45-1.16q2.67 0 5.253.75 2.572.727 4.446 2.023l-1.121 2.637a15.3 15.3 0 0 0-4.211-1.95c-1.485-.429-2.942-.648-4.368-.648-2.754 0-4.828.532-6.214 1.594-1.375 1.063-2.067 2.43-2.067 4.094 0 1.258.379 2.27 1.14 3.027q1.14 1.145 2.856 1.75c1.149.395 2.7.836 4.64 1.32q3.441.846 5.567 1.672a9.1 9.1 0 0 1 3.602 2.516q1.471 1.676 1.472 4.523 0 2.384-1.277 4.329-1.26 1.952-3.914 3.09-2.643 1.14-6.492 1.14m0 0" fill="#ffffff"></path>
        <path d="M1376.945 435.344h-11.015v-2.852h25.336v2.852h-11.016v28.46h-3.305Zm0 0" fill="#ffffff"></path>
        <path d="M1429.578 464.082q-6.097 0-9.5-3.48c-2.258-2.332-3.383-5.727-3.383-10.172v-17.938H1420v17.801c0 3.648.816 6.367 2.46 8.164q2.459 2.677 7.118 2.676 4.7.002 7.16-2.676 2.46-2.694 2.461-8.164v-17.8h3.227v17.937c0 4.445-1.133 7.84-3.383 10.172-2.258 2.32-5.41 3.48-9.465 3.48m0 0" fill="#ffffff"></path>
        <path d="M1472.813 432.492h12.765c3.305 0 6.219.664 8.754 1.985 2.543 1.328 4.512 3.18 5.918 5.546 1.402 2.375 2.105 5.086 2.105 8.125 0 3.043-.703 5.754-2.105 8.125-1.406 2.375-3.375 4.223-5.918 5.547-2.535 1.328-5.45 1.985-8.754 1.985h-12.765Zm12.585 28.442c2.743 0 5.141-.54 7.204-1.633q3.082-1.628 4.777-4.504 1.71-2.887 1.71-6.649c0-2.503-.57-4.722-1.71-6.648-1.129-1.93-2.723-3.434-4.777-4.523-2.063-1.086-4.461-1.633-7.204-1.633h-9.261v25.59Zm0 0" fill="#ffffff"></path>
        <path d="M1530.191 432.492h3.325v31.313h-3.325Zm0 0" fill="#ffffff"></path>
        <path d="M1577.813 464.082q-4.652 0-8.442-2.086-3.775-2.081-5.898-5.703-2.126-3.615-2.125-8.145-.001-4.523 2.125-8.144c1.414-2.422 3.382-4.328 5.898-5.703 2.527-1.387 5.34-2.086 8.441-2.086q4.66-.001 8.399 2.066 3.734 2.049 5.879 5.703 2.144 3.643 2.144 8.164 0 4.528-2.144 8.164-2.145 3.643-5.88 5.704-3.738 2.067-8.398 2.066m0-2.95q3.713 0 6.707-1.671a12.2 12.2 0 0 0 4.699-4.664q1.71-2.99 1.71-6.649c0-2.449-.57-4.668-1.71-6.648a12.06 12.06 0 0 0-4.7-4.64q-2.993-1.696-6.707-1.696-3.701 0-6.73 1.695a12.3 12.3 0 0 0-4.738 4.641c-1.157 1.98-1.73 4.2-1.73 6.648 0 2.438.573 4.657 1.73 6.649 1.148 1.98 2.734 3.535 4.738 4.664q3.029 1.67 6.73 1.672m0 0" fill="#ffffff"></path>
        <path stroke-width="4.721" stroke="#ffffff" d="M37.179 244.462h1765.444" fill="none"></path>
        <path stroke-width="4.721" stroke="#ffffff" d="M39.976 537.191H1805.42" fill="none"></path>
        <path stroke-width="4.721" stroke="#ffffff" d="m42.772 539.987-2.796-298.329" fill="none"></path>
        <path stroke-width="4.721" stroke="#ffffff" d="M1805.415 539.991V241.635" fill="none"></path>
        <path stroke-width="4.721" stroke="#ffffff" d="m173.929 448.887 1067.634.924" fill="none"></path>
        <path d="M125.371 387.86q2.636.002 4.504-1.872c1.262-1.258 1.918-2.761 1.988-4.523v-56.219c-.07-1.754-.726-3.254-1.988-4.504q-1.868-1.887-4.504-1.887h-1.316v-1.023h22.226v1.023h-1.316c-2.442 0-4.305 1.051-5.586 3.145a6.1 6.1 0 0 0-.926 3.246v60.488h14.516q7.513.001 11.469-3.343 3.966-3.363 6.609-9.954h1.004l-5.883 16.446h-42.113v-1.024Zm0 0" fill="#ffffff"></path>
        <path d="M264.496 387.86h.828v1.023h-22.84v-1.024h.907q2.12 0 3.187-1.359c.715-.914 1.082-1.777 1.082-2.594q-.002-1.218-.414-2.441l-6.492-17.25h-27.402l-6.805 17.348a7.5 7.5 0 0 0-.414 2.402q0 1.164 1.062 2.535c.72.906 1.793 1.36 3.207 1.36h.926v1.023H190.91v-1.024h.922q2.538-.001 4.977-1.613c1.625-1.086 2.941-2.68 3.957-4.781l22.933-54.606q3.757-8.216 3.758-10.445h.906l27.203 65.05c.954 2.102 2.243 3.696 3.856 4.782q2.431 1.612 5.074 1.613m-49.922-26.696h24.961L227.36 328.59Zm0 0" fill="#ffffff"></path>
        <path d="M355.543 318.855h-1.633c-1.418 0-2.652.461-3.7 1.375q-1.574 1.361-1.67 3.383v40.188c0 7.922-2.509 14.32-7.513 19.199q-7.517 7.299-20.007 7.297-12.475.001-20.239-7.258c-5.183-4.84-7.77-11.21-7.77-19.121V323.93c0-2.032-.882-3.524-2.636-4.465q-1.224-.61-2.734-.61h-1.633v-1.023h20.594v1.023h-1.614c-1.492 0-2.746.461-3.758 1.375-1.011.907-1.55 2.067-1.632 3.48v38.774c0 7.387 1.98 13.344 5.941 17.88q5.94 6.784 15.895 6.784c6.632 0 12.007-2.14 16.128-6.43q6.2-6.45 6.2-16.917v-40.09q-.105-2.121-1.633-3.48c-1.016-.915-2.258-1.376-3.738-1.376h-1.633v-1.023h18.785Zm0 0" fill="#ffffff"></path>
        <path d="M404.445 320.977h-6.511v60.488c0 1.762.62 3.265 1.87 4.523 1.259 1.25 2.801 1.871 4.641 1.871h1.2l.12 1.024h-22.23v-1.024h1.32c1.754 0 3.254-.601 4.504-1.812 1.258-1.219 1.918-2.711 1.985-4.485v-56.316q-.1-2.63-1.985-4.504-1.874-1.887-4.504-1.887h-1.32v-1.023h27.402q9.223 0 14.497 5.133 5.292 5.12 5.293 13.297c0 5.445-1.684 10.144-5.036 14.105q-5.016 5.94-12.218 5.938c1.011.472 2.21 1.41 3.601 2.797a34.6 34.6 0 0 1 3.7 4.304c5.82 8.332 9.609 13.457 11.367 15.383q2.637 2.894 3.757 3.953c.75.711 1.559 1.406 2.442 2.086.875.668 1.754 1.211 2.633 1.613a14.35 14.35 0 0 0 6.297 1.418v1.024h-5.586q-4.37 0-8.125-1.574-3.74-1.571-5.625-3.247-1.875-1.67-3.247-3.246c-.921-1.046-3.44-4.55-7.574-10.503q-6.18-8.925-7.199-10.192a43 43 0 0 0-2.125-2.496q-3.246-3.462-6.492-3.46v-1.005q.807.1 2.125.098 1.313.001 3.246-.098c8.39-.207 13.672-3.726 15.836-10.562.402-1.348.61-2.618.61-3.797V336.5c-.134-4.527-1.317-8.168-3.56-10.937-2.234-2.782-5.241-4.274-9.03-4.485a153 153 0 0 0-6.079-.101m0 0" fill="#ffffff"></path>
        <path d="M470.402 387.86q2.63.002 4.504-1.872c1.258-1.258 1.918-2.761 1.985-4.523v-56.828c-.211-1.621-.922-2.996-2.145-4.11-1.207-1.113-2.652-1.672-4.344-1.672h-1.222l-.098-1.023h29.723c2.093 0 4.379-.203 6.847-.61q3.715-.608 5.25-1.222v12.79h-1.023v-1.833c0-1.613-.559-2.992-1.672-4.148q-1.674-1.728-4.012-1.832H483.48v31.355h17.153c1.363-.062 2.52-.57 3.465-1.512q1.413-1.417 1.414-3.562v-1.414h1.023v16.031h-1.023v-1.516c0-1.347-.461-2.5-1.375-3.441q-1.36-1.436-3.383-1.535H483.48v30.351H498c5.004 0 8.832-1.113 11.465-3.343q3.972-3.363 6.61-9.954h1.003l-5.879 16.446h-42.117v-1.024Zm0 0" fill="#ffffff"></path>
        <path d="M617.344 318.855q-2.539 0-4.367 1.77c-1.211 1.18-1.844 2.617-1.91 4.309v52.382q.002 5.884.706 11.153l.2 1.828h-.907l-55.332-59.07v50.554c.078 2.36 1.125 4.121 3.149 5.27a6.05 6.05 0 0 0 3.047.808h1.93v1.024h-20.91v-1.024h1.925q2.538 0 4.367-1.77c1.219-1.183 1.828-2.648 1.828-4.405v-52.68c0-4.133-.234-7.82-.707-11.074l-.195-1.614h1.004l55.312 59.07v-50.355c-.07-1.758-.707-3.226-1.93-4.406q-1.825-1.77-4.366-1.77h-1.926v-1.023h20.91v1.023Zm0 0" fill="#ffffff"></path>
        <path d="M755.453 387.86h.828v1.023h-22.84v-1.024h.907q2.12 0 3.187-1.359c.715-.914 1.082-1.777 1.082-2.594q-.001-1.218-.414-2.441l-6.492-17.25h-27.402l-6.805 17.348a7.5 7.5 0 0 0-.414 2.402q0 1.164 1.062 2.535 1.08 1.36 3.207 1.36h.926v1.023h-20.418v-1.024h.922q2.538-.001 4.977-1.613c1.625-1.086 2.941-2.68 3.957-4.781l22.933-54.606q3.757-8.216 3.758-10.445h.906l27.203 65.05c.954 2.102 2.243 3.696 3.856 4.782q2.431 1.612 5.074 1.613m-49.922-26.696h24.961l-12.176-32.574Zm0 0" fill="#ffffff"></path>
        <path d="M778.086 384.71q-.316-1.415-.316-5.468c0-2.715.511-5.59 1.535-8.637h.906a24 24 0 0 0-.102 2.243c0 4.12 1.25 7.55 3.758 10.289 2.504 2.746 5.824 4.113 9.953 4.113q6.392 0 10.504-3.855c2.742-2.57 4.114-5.793 4.114-9.68 0-3.895-1.329-7.063-3.973-9.5l-19.477-18.059c-3.656-3.383-5.488-7.472-5.488-12.273q-.001-7.214 4.82-12.336 4.817-5.133 13.043-5.133 3.85.001 8.735 1.004h3.953v12.492h-.906c0-3.172-1.102-5.707-3.305-7.594q-3.306-2.849-8.477-2.851-5.178 0-8.676 3.441c-2.335 2.297-3.5 5.172-3.5 8.637q-.002 5.175 4.051 8.93l20.004 18.468q5.076 4.665 5.078 12.786c0 5.421-1.726 9.87-5.175 13.359q-5.18 5.212-13.81 5.21-4.471-.001-9.5-1.374-5.017-1.359-7.75-4.211m0 0" fill="#ffffff"></path>
        <path d="M892.469 387.86q2.63.002 4.504-1.813c1.257-1.219 1.918-2.711 1.988-4.485v-26.277h-41.527v26.18c0 1.762.64 3.265 1.93 4.523 1.28 1.25 2.812 1.871 4.581 1.871h1.32v1.024h-22.23v-1.024h1.32c1.754 0 3.254-.62 4.504-1.87 1.258-1.259 1.918-2.762 1.985-4.524v-56.317c-.067-1.77-.727-3.253-1.985-4.464q-1.874-1.83-4.504-1.829h-1.32v-1.023h22.23v1.023h-1.32q-2.655 0-4.543 1.829c-1.25 1.21-1.902 2.695-1.968 4.464v27.086h41.527v-27.086c-.07-2.437-1.152-4.27-3.246-5.488a6.9 6.9 0 0 0-3.246-.805h-1.34v-1.023h22.23v1.023h-1.32q-2.637 0-4.523 1.887-1.873 1.874-1.965 4.504v56.219c.062 1.762.715 3.265 1.965 4.523q1.886 1.873 4.523 1.871h1.32v1.024h-22.23v-1.024Zm0 0" fill="#ffffff"></path>
        <path d="M943.7 387.86q2.634.002 4.507-1.872c1.258-1.258 1.918-2.761 1.984-4.523v-56.219q-.098-2.63-1.984-4.504-1.873-1.887-4.508-1.887h-1.316v-1.023h22.226v1.023h-1.316c-2.438 0-4.305 1.051-5.586 3.145a6.1 6.1 0 0 0-.926 3.246v60.488h14.52c5.004 0 8.832-1.113 11.465-3.343q3.972-3.363 6.609-9.954h1.004l-5.883 16.446h-42.113v-1.024Zm0 0" fill="#ffffff"></path>
        <path d="M1017.578 387.86q2.636.002 4.504-1.872c1.262-1.258 1.918-2.761 1.988-4.523v-56.828c-.21-1.621-.925-2.996-2.144-4.11-1.211-1.113-2.656-1.672-4.348-1.672h-1.219l-.097-1.023h29.722q3.14 0 6.844-.61 3.719-.608 5.254-1.222v12.79h-1.023v-1.833c0-1.613-.563-2.992-1.672-4.148q-1.677-1.728-4.016-1.832h-20.71v31.355h17.151c1.364-.062 2.516-.57 3.461-1.512q1.418-1.417 1.418-3.562v-1.414h1.024v16.031h-1.024v-1.516c0-1.347-.464-2.5-1.379-3.441-.902-.957-2.035-1.469-3.382-1.535h-17.27v30.351h14.516q7.513.001 11.469-3.343 3.966-3.363 6.609-9.954h1.004l-5.883 16.446h-42.113v-1.024Zm0 0" fill="#ffffff"></path>
        <path d="M1153.879 318.855h-1.438c-2.035 0-3.949.56-5.742 1.672a15.8 15.8 0 0 0-4.504 4.207l-19.988 32.477v24.254c0 1.762.621 3.265 1.871 4.523q1.886 1.873 4.621 1.871h1.219v1.024h-22.129v-1.024h1.32c1.754 0 3.254-.601 4.504-1.812 1.258-1.219 1.918-2.711 1.985-4.485v-24.449l-19.375-32.379c-1.024-1.62-2.47-3.007-4.328-4.148q-2.797-1.729-5.82-1.73h-1.438v-1.024h24.984v1.023h-1.32q-2.244.001-3.461 2.024c-.41.75-.61 1.476-.61 2.183 0 .708.168 1.407.512 2.086l15.223 28.403 16.25-28.52c.324-.668.492-1.34.492-2.008q-.001-1.02-.71-2.144-1.224-2.023-3.442-2.024h-1.22v-1.023h22.544Zm0 0" fill="#ffffff"></path>
        <path d="M1252.203 317.832q16.23.001 26.32 9.793c6.739 6.531 10.114 15.11 10.114 25.73 0 10.622-3.375 19.2-10.114 25.73q-10.09 9.798-26.32 9.798h-34.402v-1.024h1.316c1.758 0 3.258-.62 4.508-1.87 1.258-1.259 1.918-2.762 1.984-4.524v-56.828c0-1.621-.664-2.996-1.984-4.11-1.316-1.113-2.812-1.672-4.508-1.672h-1.219l-.097-1.023Zm-20.004 3.047v64.953h20.004c5.676 0 10.703-1.348 15.07-4.05q6.551-4.073 10.149-11.43 3.602-7.353 3.601-16.997 0-14.613-7.968-23.546c-5.309-5.95-12.262-8.93-20.852-8.93Zm0 0" fill="#ffffff"></path>
        <path d="M1317.855 387.86q2.635.002 4.508-1.872c1.258-1.258 1.918-2.761 1.985-4.523v-56.828c-.211-1.621-.922-2.996-2.145-4.11-1.207-1.113-2.652-1.672-4.348-1.672h-1.218l-.098-1.023h29.723q3.14 0 6.843-.61 3.719-.608 5.254-1.222v12.79h-1.023v-1.833c0-1.613-.559-2.992-1.672-4.148q-1.675-1.728-4.012-1.832h-20.715v31.355h17.153c1.363-.062 2.52-.57 3.465-1.512q1.413-1.417 1.414-3.562v-1.414h1.023v16.031h-1.023v-1.516c0-1.347-.461-2.5-1.375-3.441-.907-.957-2.04-1.469-3.383-1.535h-17.274v30.351h14.52c5.004 0 8.832-1.113 11.465-3.343q3.972-3.363 6.61-9.954h1.003l-5.883 16.446h-42.113v-1.024Zm0 0" fill="#ffffff"></path>
        <path d="M1392.04 384.71c-.216-.944-.317-2.765-.317-5.468 0-2.715.511-5.59 1.535-8.637h.902q-.099 1.125-.098 2.243-.002 6.18 3.758 10.289c2.504 2.746 5.825 4.113 9.953 4.113q6.389 0 10.504-3.855c2.739-2.57 4.114-5.793 4.114-9.68 0-3.895-1.329-7.063-3.977-9.5l-19.473-18.059q-5.489-5.073-5.488-12.273 0-7.214 4.82-12.336 4.818-5.133 13.04-5.133 3.854.001 8.734 1.004h3.957v12.492h-.906c0-3.172-1.102-5.707-3.305-7.594q-3.305-2.849-8.48-2.851c-5.175-.002-6.344 1.148-8.672 3.441-2.336 2.297-3.504 5.172-3.504 8.637 0 3.45 1.347 6.426 4.054 8.93l20.004 18.468q5.075 4.665 5.075 12.786c0 5.421-1.727 9.87-5.172 13.359q-5.179 5.212-13.809 5.21-4.471-.001-9.5-1.374c-3.344-.906-5.934-2.309-7.75-4.211m0 0" fill="#ffffff"></path>
        <path d="M1458.305 387.86q2.635.002 4.504-1.872c1.261-1.258 1.918-2.761 1.988-4.523v-56.317c-.07-1.77-.727-3.253-1.988-4.464q-1.868-1.83-4.504-1.829h-1.317v-1.023h22.227v1.023h-1.317q-2.656 0-4.543 1.829c-1.25 1.21-1.906 2.695-1.968 4.464v56.317c0 1.762.64 3.265 1.93 4.523 1.28 1.25 2.812 1.871 4.581 1.871h1.317v1.024h-22.227v-1.024Zm0 0" fill="#ffffff"></path>
        <path d="M1544.566 390.297c-10.836-.067-19.613-3.48-26.34-10.246-6.726-6.77-10.09-15.664-10.09-26.696 0-11.023 3.364-19.937 10.09-26.73 6.727-6.809 15.504-10.21 26.34-10.21q14-.001 24.664 6.905l2.028 14.301h-.906c-1.493-5.824-4.493-10.3-8.989-13.437q-6.751-4.719-16.797-4.72c-8.593 0-15.539 3.118-20.851 9.345q-7.97 9.323-7.969 24.546 0 15.23 7.969 24.512c5.312 6.192 12.258 9.317 20.851 9.383q6.587.001 12.528-2.324 5.938-2.34 10.406-6.488v-17.981q-.001-2.218-1.375-3.383c-.906-.789-2.176-1.18-3.797-1.18h-1.633v-1.023h19.907v1.024h-1.536c-1.691 0-2.98.39-3.855 1.18-.879.777-1.29 1.902-1.219 3.382v16.758c-1.762 2.297-3.855 4.363-6.293 6.2q-3.644 2.735-9.797 4.815-6.14 2.068-13.336 2.067m0 0" fill="#ffffff"></path>
        <path d="M1678.82 318.855q-2.538 0-4.367 1.77-1.814 1.77-1.906 4.309v52.382q-.001 5.884.707 11.153l.195 1.828h-.902l-55.336-59.07v50.554c.078 2.36 1.129 4.121 3.148 5.27a6.06 6.06 0 0 0 3.047.808h1.93v1.024h-20.91v-1.024h1.93q2.535 0 4.363-1.77c1.222-1.183 1.832-2.648 1.832-4.405v-52.68c0-4.133-.238-7.82-.707-11.074l-.2-1.614h1.004l55.313 59.07v-50.355q-.098-2.636-1.926-4.406-1.83-1.77-4.367-1.77h-1.93v-1.023h20.91v1.023Zm0 0" fill="#ffffff"></path>
    </g>
</svg>