<?xml version="1.0" encoding="UTF-8"?>
<svg id="Ebene_2" data-name="Ebene 2" xmlns="http://www.w3.org/2000/svg" viewBox="0 0 824.47 99.21">
  <defs>
    <style>
      .cls-1 {
        fill: #222221;
      }
    </style>
  </defs>
  <g id="Black">
    <g>
      <g>
        <path class="cls-1" d="m41.8.38l5.33,3.1L6.73,26.97v24.73h0c0,17,9.04,26.03,23.74,34.58l9.92,5.77,11.81-6.86c13.53-7.87,21.86-17.11,21.86-32.76v-25.45s5.68-3.3,5.68-3.3c.47-.27,1.05.07,1.05.6v29.94c0,16.97-9.02,27.42-23.69,35.95l-14.6,8.49c-1.3.76-2.91.76-4.21,0l-11.21-6.52C10.31,82.38,0,71.14,0,51.75h0v-27.1c0-1,.53-1.92,1.39-2.42L38.99.38c.87-.5,1.94-.5,2.81,0Z"/>
        <path class="cls-1" d="m20.2,71.08c-7.27-6.76-6.73-16.87-6.73-16.87v-21.72c0-1,.53-1.92,1.39-2.42L52.46,8.21c.87-.5,1.94-.5,2.81,0l5.33,3.1-40.4,23.49v36.28Z"/>
        <path class="cls-1" d="m65.92,16.04l-37.6,21.86c-.86.5-1.39,1.42-1.39,2.42,0,0,0,29.62,0,35.38,3.27,2.85,12.06,7.69,12.06,7.69.87.5,1.94.5,2.81,0l6.52-3.79c11.77-6.84,19.01-15.22,19.01-28.84v-18.69c0-.53-.58-.87-1.04-.61l-24.47,13.81c-.88.5-1.42,1.43-1.42,2.43v16.4h0c4.17-2.42,6.73-4.4,6.73-9.75v-3.91s13.47-7.83,13.47-7.83v7.52c0,11.58-6.16,18.07-16.17,23.89l-4.03,2.34s-2.98-1.4-6.73-4.06c0-5.59,0-29.69,0-29.69l40.4-23.49-5.33-3.1c-.87-.5-1.94-.5-2.81,0Z"/>
      </g>
      <g>
        <path class="cls-1" d="m817.39,33.58c-3.27,0-5.92-2.65-5.92-5.9s2.65-5.92,5.92-5.92,5.9,2.65,5.9,5.92-2.65,5.9-5.9,5.9m0-13c-3.93,0-7.09,3.17-7.09,7.09s3.17,7.08,7.09,7.08,7.08-3.17,7.08-7.08-3.17-7.09-7.08-7.09"/>
        <path class="cls-1" d="m818.97,28.22s1.06-.39,1.3-1.6c.03-.16.05-.33.05-.49,0,0,0-.02,0-.02,0-.54-.19-1-.57-1.36,0,0,0,0,0,0,0,0,0,0,0,0-.79-.73-2.36-1.04-4.71-.75,0,0,0,0,0,0v7.17h1.57v-5.92c.2-.03,1.76-.24,2.08.65.1.29.1.61-.01.89-.03.09-.08.17-.13.24-.04.05-.08.1-.12.14-.04.04-.08.08-.12.11,0,0,0,0-.01.01-.04.03-.08.06-.12.1-.21.15-.45.27-.69.37v.72l1.61,2.71h1.79l-1.91-2.94Z"/>
      </g>
      <g>
        <g>
          <polygon class="cls-1" points="174.76 21.72 174.76 78.41 211.88 78.41 211.88 67.66 187.26 67.66 187.26 21.72 174.76 21.72"/>
          <polygon class="cls-1" points="206.17 21.72 206.17 32.39 222.94 32.39 222.94 78.41 235.45 78.41 235.45 32.39 252.2 32.39 252.2 21.72 206.17 21.72"/>
          <rect class="cls-1" x="260.22" y="21.73" width="12.51" height="56.68"/>
          <path class="cls-1" d="m301.64,21.73c.97,1.77,2.08,3.95,3.33,6.53,1.27,2.59,2.57,5.4,3.95,8.42,1.36,3.02,2.71,6.11,4.06,9.26,1.35,3.16,2.6,6.12,3.77,8.9,1.18-2.77,2.44-5.75,3.78-8.9,1.34-3.16,2.69-6.24,4.06-9.26,1.36-3.03,2.68-5.82,3.94-8.42,1.26-2.59,2.37-4.77,3.33-6.53h11.38c.54,3.69,1.03,7.81,1.49,12.38.46,4.58.85,9.32,1.21,14.27.35,4.95.66,9.91.96,14.87.29,4.97.55,10.77.76,15.15h-12.19c-.16-5.4-.38-12.39-.64-18.76-.26-6.36-.68-12.78-1.2-19.24-.97,2.24-2.04,4.73-3.22,7.46-1.17,2.73-2.34,5.45-3.5,8.19-1.15,2.73-2.26,5.32-3.33,7.81-1.08,2.48-1.99,4.61-2.74,6.37h-8.73c-.76-1.76-1.67-3.88-2.75-6.37-1.06-2.49-2.18-5.09-3.33-7.81-1.15-2.73-2.32-5.46-3.5-8.19-1.17-2.73-2.25-5.21-3.22-7.46-.53,6.46-.94,12.88-1.2,19.24-.27,6.36-.48,13.36-.64,18.76h-12.19c.21-4.38.48-10.18.76-15.15.29-4.97.62-9.94.97-14.87.35-4.94.75-9.69,1.21-14.27.45-4.57.94-8.71,1.49-12.38h11.94Z"/>
          <polygon class="cls-1" points="403.72 21.72 403.72 32.39 420.47 32.39 420.47 78.41 432.98 78.41 432.98 32.39 449.74 32.39 449.74 21.72 403.72 21.72"/>
          <path class="cls-1" d="m403.66,60.7c-1.87-5.08-3.71-9.87-5.51-14.36-1.8-4.5-3.6-8.75-5.36-12.79-1.78-4.03-3.56-7.97-5.4-11.82h-11.86c-1.87,3.85-3.67,7.79-5.42,11.82-1.74,4.04-3.5,8.29-5.3,12.79-1.79,4.49-3.63,9.28-5.51,14.36-1.87,5.08-4.19,11.73-6.28,17.71h13l15.21-44.08,15.41,44.08h13.4c-2.1-5.98-4.49-12.64-6.37-17.71"/>
          <polygon class="cls-1" points="457.43 21.72 457.43 78.41 494.95 78.41 494.95 67.91 469.94 67.91 469.94 54.52 492.15 54.52 492.15 44.25 469.94 44.25 469.94 32.23 494.95 32.23 494.95 21.72 457.43 21.72"/>
        </g>
        <path class="cls-1" d="m139.79,79.8c-3.9,0-7.27-.55-10.11-1.65-2.84-1.1-5.17-2.61-7.02-4.58-1.85-1.95-3.21-4.27-4.09-6.97-.88-2.7-1.32-5.69-1.32-8.95V21.72h12.51v34.92c0,2.25.25,4.16.76,5.73.51,1.57,1.2,2.86,2.09,3.85.88.99,1.95,1.7,3.21,2.12,1.26.42,2.64.64,4.14.64,3.05,0,5.52-.93,7.41-2.81,1.9-1.87,2.85-5.05,2.85-9.54V21.72h12.51v35.95c0,3.26-.45,6.26-1.36,8.99-.91,2.73-2.3,5.06-4.17,7.01-1.87,1.95-4.25,3.47-7.14,4.54-2.9,1.06-6.32,1.59-10.27,1.59"/>
      </g>
      <g>
        <path class="cls-1" d="m694.94,61.48c-1.9-5.19-3.79-10.07-5.62-14.65-1.84-4.59-3.67-8.92-5.47-13.05-1.82-4.11-3.64-8.14-5.51-12.07h-12.1c-1.9,3.93-3.75,7.95-5.53,12.07-1.77,4.12-3.57,8.46-5.41,13.05-1.83,4.59-3.7,9.47-5.62,14.65-1.91,5.19-3.94,10.83-6.07,16.93h13.26l15.16-43.84,15.33,43.84h13.67c-2.14-6.1-4.17-11.75-6.09-16.93"/>
        <path class="cls-1" d="m562.33,79.82c-4.42,0-8.52-.75-12.18-2.22-3.65-1.47-6.82-3.54-9.43-6.16-2.61-2.61-4.68-5.76-6.13-9.37-1.46-3.61-2.2-7.6-2.2-11.84v-.17c0-4.12.75-8,2.24-11.55,1.49-3.59,3.59-6.76,6.23-9.45,2.66-2.71,5.83-4.87,9.44-6.42,3.61-1.55,7.64-2.34,11.97-2.34,2.51,0,4.86.18,6.98.54,2.11.37,4.07.88,5.82,1.52,1.7.62,3.3,1.4,4.77,2.3l-6.33,10.09c-1.02-.65-2.09-1.21-3.2-1.68-1.18-.5-2.49-.89-3.89-1.18-1.42-.28-2.96-.43-4.58-.43-2.34,0-4.56.5-6.59,1.49-2.02.98-3.82,2.32-5.35,3.98-1.53,1.66-2.74,3.62-3.6,5.85-.85,2.2-1.29,4.6-1.29,7.14v.17c0,2.68.43,5.2,1.29,7.48.87,2.28,2.11,4.29,3.69,5.97,1.6,1.71,3.44,3,5.62,3.94,2.13.93,4.54,1.39,7.15,1.39,4.76,0,8.83-1.2,12.11-3.57l.13-.09v-13.88l11.62-2.05v21.45c-2.89,2.47-6.38,4.61-10.38,6.38-4.05,1.78-8.72,2.68-13.9,2.68Z"/>
        <path class="cls-1" d="m784.42,79.3c6.01-.79,12.14-3.47,16.89-7.79,1.4-1.25,2.57-2.67,3.63-4.25,3.42-5.11,4.74-11.02,4.74-17.14v-.55c.01-6.14-1.32-11.57-4.74-16.67-1.05-1.58-2.24-3-3.63-4.25-4.74-4.32-10.88-7-16.89-7.78-2.86-.38-5.74-.54-8.62-.55-4.79,0-9.6.39-14.36.86v57.73c4.61.49,9.49.9,14.37.92,2.89,0,5.78-.16,8.61-.53Zm-10.48-48.3c3.7-.47,7.68-.47,11.3.47,3.49.79,6.7,2.75,8.79,6.05,2.02,3.22,2.86,7,3.07,10.85,0,.47,0,1.02.06,1.5-.06.47-.06.95-.06,1.41-.21,3.85-1.05,7.71-3.07,10.86-2.09,3.29-5.3,5.26-8.79,6.13-3.62.87-7.6.87-11.3.39V31Z"/>
        <path class="cls-1" d="m617.7,79.8c-3.9,0-7.27-.55-10.11-1.65-2.84-1.1-5.17-2.61-7.02-4.58-1.85-1.95-3.21-4.27-4.09-6.97-.88-2.7-1.32-5.69-1.32-8.95V21.72h12.51v34.92c0,2.25.25,4.16.76,5.73.51,1.57,1.2,2.86,2.09,3.85.88.99,1.95,1.7,3.21,2.12,1.26.42,2.64.64,4.14.64,3.05,0,5.52-.93,7.41-2.81,1.9-1.87,2.85-5.05,2.85-9.54V21.72h12.51v35.95c0,3.26-.45,6.26-1.36,8.99-.91,2.73-2.3,5.06-4.17,7.01-1.87,1.95-4.25,3.47-7.14,4.54-2.9,1.06-6.32,1.59-10.27,1.59"/>
        <path class="cls-1" d="m739.35,54.97s8.45-3.07,10.39-12.75c.27-1.28.42-2.61.4-3.93,0-.06,0-.12,0-.19,0-4.3-1.53-7.96-4.54-10.82-.02-.02-.03-.04-.05-.06-.02-.02-.04-.03-.05-.04-6.27-5.85-18.85-8.31-37.57-5.97,0,0,0,0,0,0v57.2h12.54V31.16c1.59-.24,14.07-1.89,16.61,5.18.83,2.29.79,4.84-.08,7.07-.25.71-.64,1.35-1.03,1.9-.31.39-.64.79-.95,1.11-.3.31-.62.61-.95.89-.03.03-.07.05-.1.08-.32.26-.64.52-.98.76-1.67,1.2-3.57,2.12-5.49,2.94v5.72l12.81,21.61h14.28l-15.23-23.44Z"/>
      </g>
    </g>
  </g>
</svg>