<?xml version="1.0" encoding="UTF-8"?>
<svg id="Ebene_2" data-name="Ebene 2" xmlns="http://www.w3.org/2000/svg" viewBox="0 0 80.79 99.21">
  <defs>
    <style>
      .cls-1 {
        fill: #222221;
      }
    </style>
  </defs>
  <g id="Black">
    <g>
      <g>
        <path class="cls-1" d="m73.71,98.04c-3.27,0-5.92-2.65-5.92-5.9s2.64-5.92,5.92-5.92,5.9,2.65,5.9,5.92-2.65,5.9-5.9,5.9m0-13c-3.92,0-7.09,3.17-7.09,7.09s3.17,7.08,7.09,7.08,7.08-3.17,7.08-7.08-3.17-7.09-7.08-7.09"/>
        <path class="cls-1" d="m76.43,91.41c.21-.44.18-1.01,0-1.46-.09-.25-.24-.45-.41-.63-.45-.4-1.08-.61-1.68-.72-.15-.02-.3-.04-.44-.06-.28-.03-.56-.04-.84-.04-.62,0-1.26.06-1.88.11v6.96c.28.04.57.06.85.06.27,0,.55-.02.84-.06v-5.87c.19-.03,1.54-.19,1.86.7.09.27.09.58-.01.84-.03.09-.08.16-.12.23-.04.05-.08.09-.11.13-.25.25-.57.41-.9.56v.68l1.87,2.73c.28.04.57.06.85.06s.61-.02.9-.06l-2.04-2.95c.49-.21.98-.58,1.28-1.23"/>
      </g>
      <g>
        <path class="cls-1" d="m41.8.38l5.33,3.1L6.73,26.97v24.73h0c0,17,9.04,26.03,23.74,34.58l9.92,5.77,11.81-6.86c13.53-7.87,21.86-17.11,21.86-32.76v-25.45s5.68-3.3,5.68-3.3c.47-.27,1.05.07,1.05.6v29.94c0,16.97-9.02,27.42-23.69,35.95l-14.6,8.49c-1.3.76-2.91.76-4.21,0l-11.21-6.52C10.31,82.38,0,71.14,0,51.75h0v-27.1c0-1,.53-1.92,1.39-2.42L38.99.38c.87-.5,1.94-.5,2.81,0Z"/>
        <path class="cls-1" d="m20.2,71.08c-7.27-6.76-6.73-16.87-6.73-16.87v-21.72c0-1,.53-1.92,1.39-2.42L52.46,8.21c.87-.5,1.94-.5,2.81,0l5.33,3.1-40.4,23.49v36.28Z"/>
        <path class="cls-1" d="m65.92,16.04l-37.6,21.86c-.86.5-1.39,1.42-1.39,2.42,0,0,0,29.62,0,35.38,3.27,2.85,12.06,7.69,12.06,7.69.87.5,1.94.5,2.81,0l6.52-3.79c11.77-6.84,19.01-15.22,19.01-28.84v-18.69c0-.53-.58-.87-1.04-.61l-24.47,13.81c-.88.5-1.42,1.43-1.42,2.43v16.4h0c4.17-2.42,6.73-4.4,6.73-9.75v-3.91s13.47-7.83,13.47-7.83v7.52c0,11.58-6.16,18.07-16.17,23.89l-4.03,2.34s-2.98-1.4-6.73-4.06c0-5.59,0-29.69,0-29.69l40.4-23.49-5.33-3.1c-.87-.5-1.94-.5-2.81,0Z"/>
      </g>
    </g>
  </g>
</svg>